<svg xmlns="http://www.w3.org/2000/svg" viewBox="0 0 256 256" role="img" aria-labelledby="title desc">
  <title id="title">AL Suhaim University Logo</title>
  <desc id="desc">A navy and gold shield-style university mark inspired by Arabic calligraphy.</desc>
  <rect width="256" height="256" rx="32" fill="#ffffff"/>
  <circle cx="128" cy="128" r="112" fill="#ffffff"/>
  <path d="M53 91c18-11 43-18 75-18 32 0 57 7 75 18v105c-20 25-45 39-75 44-30-5-55-19-75-44V91Z" fill="#ffffff"/>
  <path d="M54 110c12-8 26-14 42-18l-8 29c-9 3-17 8-24 13v57c10 13 22 23 36 31l22 21c-28-7-51-22-68-44v-89Z" fill="#b9a044"/>
  <path d="M202 110c-17-11-40-17-74-17-13 0-25 1-36 4l6 33c8-2 18-3 30-3 21 0 38 3 51 9v61c-8 11-19 20-32 27l-13 24c27-5 50-19 68-42v-96Z" fill="#b9a044"/>
  <path d="M77 73c9-4 19-7 29-9l-21 94c-10 2-20 6-29 12l-7-22c7-5 14-9 22-12l6-63Z" fill="#003363"/>
  <path d="M116 62c10-1 20-1 30 0l-22 96c-10 0-20 1-30 3l22-99Z" fill="#003363"/>
  <path d="M66 167c19-15 40-23 62-23 23 0 43 8 62 23l-7 25c-16-14-34-21-55-21s-39 7-55 21l-7-25Z" fill="#003363"/>
  <path d="M93 184c10-4 22-6 35-6 13 0 25 2 35 6l-35 42-35-42Z" fill="#003363"/>
  <path d="M111 193l17 20 17-20c-5-1-11-2-17-2-6 0-12 1-17 2Z" fill="#ffffff"/>
  <path d="M144 126h16v32h-16v-32Zm28 8h15v34h-15v-34Zm-56 0h16v25h-16v-25Z" fill="#003363"/>
  <path d="M86 183c21 27 45 47 72 61" fill="none" stroke="#003363" stroke-width="17" stroke-linecap="round"/>
  <path d="M102 187c17 20 37 35 60 47" fill="none" stroke="#ffffff" stroke-width="7" stroke-linecap="round"/>
</svg>
